<svg id="Слой_1" data-name="Слой 1" xmlns="http://www.w3.org/2000/svg" viewBox="0 0 159.94 59.8"><defs><style>.cls-1{fill:#fac705;}</style></defs><title>logo_byfin</title><g id="Слой_1-2" data-name="Слой_1"><g id="_1698696740336" data-name=" 1698696740336"><path d="M96.45,32.27Z" transform="translate(-0.07)"/><polygon points="93.42 12.64 82.12 12.64 82.12 36.85 93.42 36.85 93.42 12.64"/><path d="M108.28,30.93c0-3.5.27-6.19,1.34-7.8.81-1.61,2.15-2.15,4-2.15a3.09,3.09,0,0,1,3,1.61c.81,1.08,1.08,2.69,1.08,4.84v9.41H129V23.94a13.07,13.07,0,0,0-3-8.88c-2.15-2.15-4.84-3-8.61-3a14.47,14.47,0,0,0-5.92,1.08,10.05,10.05,0,0,0-4,3.5h-.54l-1.34-4H97V36.85h11.3V30.93Z" transform="translate(-0.07)"/><polygon class="cls-1" points="59.53 45.45 70.83 45.45 70.83 36.85 59.53 36.85 59.53 45.45"/><path class="cls-1" d="M38.8,44.92a12.92,12.92,0,0,1-1.88,3.59A11.7,11.7,0,0,1,35,50.12a8,8,0,0,1-2.69.54,14.21,14.21,0,0,1-3.5-.27v8.88a30,30,0,0,0,4.57.54,15.39,15.39,0,0,0,9.68-3c2.42-1.61,4.39-4.84,6-9.41l4-10.58H35.57l3.23,8.07Z" transform="translate(-0.07)"/><path class="cls-1" d="M10.56,42.23h.81a8.44,8.44,0,0,0,2.69,2.15,6.65,6.65,0,0,0,2.42,1.08,13.7,13.7,0,0,0,3.23.63,10.57,10.57,0,0,0,8.88-4.66,18.05,18.05,0,0,0,2.15-4.57H.07v8.61H8.95l1.61-3.23Z" transform="translate(-0.07)"/><polygon class="cls-1" points="93.42 45.45 93.42 36.85 82.12 36.85 82.12 45.45 93.42 45.45"/><polygon class="cls-1" points="108.21 45.45 108.21 36.85 96.91 36.85 96.91 45.45 108.21 45.45"/><polygon class="cls-1" points="117.62 45.45 128.92 45.45 128.92 36.85 117.62 36.85 117.62 45.45"/><polygon class="cls-1" points="133.76 36.85 133.76 45.45 159.94 45.45 159.94 36.85 133.76 36.85"/><path d="M31.81,28.78c0-.54-.27-1.08-.27-1.88l4,10H53.14L59.06,21h.54V36.85H70.9V21h6.72V12.64H70.9V11.57c0-1.08,0-1.88.54-2.42a2.09,2.09,0,0,1,1.88-.81,20.76,20.76,0,0,1,4,.54l2.42-7.26C77.89,1.08,76.54.54,75.2.27A23.14,23.14,0,0,0,70.9,0c-4,0-6.72,1.08-8.61,3C60.68,4.84,59.6,7.8,59.6,12.1v.54H50.72l-6,18.83a13.63,13.63,0,0,0-.54,3.5h-.27a11.94,11.94,0,0,0-.54-3.5L37.72,12.64H25.89l.81,1.61A9.65,9.65,0,0,0,20,12.1a9.85,9.85,0,0,0-4.84,1.08,11.48,11.48,0,0,0-3.77,3.5H11.1a61.9,61.9,0,0,0,.27-6.19V.27H.07V36.85H30.73a32.56,32.56,0,0,0,1.08-8.07ZM19.17,34.7h0a3.79,3.79,0,0,1-3.23,2.15A3.65,3.65,0,0,1,12.44,35c-.81-1.08-1.08-3-1.08-5.65V27.7c0-2.42.27-4,1.08-5.11A4,4,0,0,1,15.94,21c3,0,4.3,2.42,4.3,7.8a15.45,15.45,0,0,1-1.08,5.92Z" transform="translate(-0.07)"/></g></g></svg>