<svg viewBox="0 0 184 50" xmlns="http://www.w3.org/2000/svg"><path fill="#0086C8" d="M0 0h183.109v49.89H0z"/><path fill="#006DB5" d="M0 23h183.109v26.654H0z"/><g fill="#FFF"><path d="M33.63 10.33v.111c1.14.147 1.985.92 1.985 2.463 0 2.206-2.095 2.942-4.116 2.942-.699 0-2.39 0-3.566-.258v-9.78c.736-.146 2.169-.257 3.272-.257 2.205 0 4.08.552 4.08 2.537.036 1.03-.368 1.986-1.655 2.243Zm-2.61-.66c.185 0 .479 0 .662-.038.552-.183.956-.44.956-.992 0-.736-.588-.883-1.213-.883-.367 0-.698 0-.882.037V9.67h.478Zm1.839 2.977c0-.92-.81-.956-1.507-.956h-.846v1.912c.147.037.699.073.993.073.698-.036 1.36-.294 1.36-1.029ZM36.423 5.735h6.36v2.427h-3.677v1.36h3.308v2.426h-3.308v1.324h3.75v2.39h-6.433zM46.09 5.735V8.75c0 .92.294 1.434 1.103 1.434.551 0 1.066-.074 1.323-.294V5.735h2.683v9.927h-2.683v-3.713c-.441.294-1.286.514-2.463.514-1.543 0-2.683-.882-2.683-2.684V5.735h2.72ZM52.375 5.735h6.358v2.427h-3.675v1.36h3.308v2.426h-3.308v1.324h3.75v2.39h-6.433zM59.763 5.846a19.388 19.388 0 0 1 3.087-.258c2.242 0 4.521.441 4.521 3.53 0 2.573-1.874 3.566-3.822 3.566-.184 0-.883 0-1.103-.037V15.7h-2.683V5.846Zm2.683 2.132v2.28c.11.036.441.073.551.073.772 0 1.507-.184 1.507-1.287 0-.919-.698-1.14-1.433-1.14-.258 0-.478.037-.625.074ZM73.215 11.912h-2.5v3.75h-2.683V5.735h2.683v3.75h2.5v-3.75h2.683v9.927h-2.683zM82.55 11.397l.184-1.47h-.11l-.699 1.507-2.683 4.228h-2.168V5.735h2.683v4.007l-.184 1.545h.11l.735-1.58 2.647-3.972h2.205v9.927h-2.72zM91.923 11.397l.184-1.434h-.11l-.699 1.508-2.683 4.228H86.41V5.772h2.683V9.78l-.184 1.545h.11l.772-1.618 2.61-3.97h2.205v9.926h-2.683v-4.265ZM89.975 3.2c.074.477.368.588.809.588.514 0 .735-.11.808-.588l2.132.257c-.184 1.36-1.286 1.801-2.977 1.801-1.728 0-2.977-.294-3.161-1.764l2.389-.294Z"/><g><path d="M18.855 18.235h12.386v4.375h-7.46v2.133c.624-.11 1.47-.22 2.315-.22 4.263 0 6.579 1.69 6.579 5.845 0 3.933-2.463 6.25-7.755 6.25-1.177 0-4.374-.11-6.028-.478V18.235h-.037Zm8.674 12.316c0-1.727-1.103-2.022-2.573-2.022-.367 0-.955.074-1.176.147V32.5c.294.074.882.11 1.434.11 1.323 0 2.315-.514 2.315-2.059ZM41.202 17.868c5.33 0 7.976 3.786 7.976 9.411 0 5.993-2.978 9.412-7.976 9.412-5.403 0-7.94-3.787-7.94-9.412 0-5.992 2.868-9.411 7.94-9.411m0 14.448c1.874 0 2.793-1.25 2.793-5.037 0-3.051-.661-5.036-2.793-5.036-1.838 0-2.794 1.507-2.794 5.036 0 3.31.81 5.037 2.794 5.037M50.207 18.235h12.386v4.375h-7.498v2.133c.625-.11 1.47-.22 2.316-.22 4.263 0 6.579 1.69 6.579 5.845 0 3.933-2.463 6.25-7.756 6.25-1.176 0-4.373-.11-6.027-.478V18.235Zm8.637 12.316c0-1.727-1.103-2.022-2.573-2.022-.367 0-.955.074-1.176.147V32.5c.294.074.882.11 1.433.11 1.324 0 2.316-.514 2.316-2.059ZM64.982 18.42c1.58-.295 3.639-.479 5.587-.479 4.043 0 8.27.772 8.27 6.434 0 4.67-3.419 6.47-6.947 6.47-.331 0-1.617 0-1.985-.073v5.552H65.02V18.419h-.037Zm4.888 3.86v4.19c.22.037.809.11 1.03.11 1.433 0 2.756-.33 2.756-2.315 0-1.691-1.25-2.06-2.61-2.06-.477 0-.882.038-1.176.074Z"/><path d="m86.373 24.706.404 2.39h.184l.294-2.464 1.911-6.36h5.146L89.24 31.507c-1.14 2.978-2.72 5.037-5.697 5.037-1.14 0-1.69 0-2.72-.662l1.14-4.007c.514.22.808.257 1.396.257.625 0 1.176-.22 1.323-.919l-6.8-12.978h5.808l2.683 6.47ZM104.603 28.53l.294-2.648h-.183l-1.287 2.72-4.851 7.722h-4.007V18.235h4.889v7.28l-.331 2.83h.184l1.396-2.904 4.778-7.206h4.007v18.052h-4.889v-7.758Zm-3.565-14.89c.147.919.662 1.066 1.434 1.066.918 0 1.323-.22 1.433-1.066l3.933.44c-.368 2.5-2.316 3.236-5.403 3.236-3.161 0-5.44-.515-5.77-3.198l4.373-.478ZM123.826 35.551c-1.066.736-3.161 1.14-4.962 1.14-4.3 0-8.306-2.28-8.306-9.412 0-7.426 4.63-9.411 8.453-9.411 2.022 0 3.602.367 4.52.735l-.844 4.191c-.81-.404-1.654-.515-3.235-.515-2.83 0-3.749 2.022-3.749 5.037 0 2.463.699 5.037 3.97 5.037 1.507 0 2.389-.368 3.234-.809l.919 4.007ZM130.148 29.191h-.662v7.095h-4.888v-18.05h4.888v7.61l.515-.368 3.859-7.243h5.55l-4.484 7.426-1.654 1.067 1.544.992 5.403 8.566h-5.955z"/></g></g></svg>